<?xml version="1.0" standalone="no"?>
<!DOCTYPE svg PUBLIC "-//W3C//DTD SVG 20010904//EN"
 "http://www.w3.org/TR/2001/REC-SVG-20010904/DTD/svg10.dtd">
<svg version="1.0" xmlns="http://www.w3.org/2000/svg"
 width="180.000000pt" height="180.000000pt" viewBox="0 0 180.000000 180.000000"
>
<rect width="100%" height="100%" fill="white"/>
<g transform="translate(0.000000,180.000000) scale(0.100000,-0.100000)"
fill="#000000" fill-opacity="1" stroke="none">
<path d="M0 900 l0 -900 900 0 900 0 0 900 0 900 -900 0 -900 0 0 -900z m1038
603 c-4 -22 -22 -20 -26 1 -2 10 3 16 13 16 10 0 15 -7 13 -17z m-200 -26 c32
-30 31 -90 -4 -122 -68 -63 -168 12 -133 98 14 33 60 57 93 49 12 -2 31 -14
44 -25z m302 -2 c0 -18 -5 -25 -19 -25 -11 0 -23 5 -26 10 -11 18 3 40 25 40
15 0 20 -7 20 -25z m-515 -60 c28 -27 31 -45 14 -78 -16 -29 -28 -37 -63 -37
-40 0 -66 26 -66 67 0 67 68 96 115 48z m409 3 c24 -33 20 -84 -6 -102 -51
-36 -111 -6 -111 56 0 60 84 93 117 46z m241 2 c27 -30 10 -74 -30 -78 -47 -6
-73 48 -39 82 21 22 47 20 69 -4z m-813 -127 c10 -9 18 -26 18 -38 0 -53 -77
-62 -95 -11 -8 24 -6 31 14 47 29 23 39 24 63 2z m698 -3 c23 -23 24 -33 10
-61 -12 -22 -59 -26 -78 -7 -17 17 -15 48 5 70 21 23 38 23 63 -2z m239 -9
c28 -39 26 -55 -7 -92 -23 -26 -34 -31 -55 -25 -38 9 -57 33 -57 71 0 71 80
101 119 46z m-612 -6 c7 -20 -2 -29 -21 -22 -9 4 -13 13 -10 22 8 19 23 19 31
0z m-82 -40 c0 -21 -31 -33 -46 -18 -5 5 -7 17 -3 27 9 24 49 17 49 -9z m-122
-39 c10 -8 17 -26 17 -44 0 -39 -27 -56 -64 -42 -34 13 -36 62 -4 84 27 19 28
19 51 2z m-210 -50 c3 -8 -1 -22 -8 -33 -13 -17 -15 -17 -31 -1 -9 9 -14 24
-11 32 8 20 43 21 50 2z m855 -10 c6 -27 -11 -38 -33 -22 -11 8 -16 19 -12 30
9 22 41 17 45 -8z m196 -30 c88 -36 57 -166 -40 -166 -78 0 -106 127 -36 164
34 19 36 19 76 2z m-921 -58 c25 -29 21 -65 -10 -94 -20 -19 -34 -24 -53 -19
-64 16 -83 86 -33 125 32 25 69 20 96 -12z m-170 -13 c1 -5 -6 -11 -15 -13
-11 -2 -18 3 -18 13 0 17 30 18 33 0z m917 0 c0 -8 -7 -15 -15 -15 -8 0 -15 7
-15 15 0 8 7 15 15 15 8 0 15 -7 15 -15z m147 -166 c18 -16 26 -65 13 -89 -16
-30 -57 -44 -91 -30 -46 20 -53 87 -12 120 27 21 63 21 90 -1z m-939 -7 c36
-28 41 -91 11 -125 -13 -15 -38 -30 -56 -33 -27 -5 -37 -1 -63 24 -39 40 -41
85 -3 124 31 33 76 37 111 10z m117 -72 c3 -6 -1 -13 -10 -16 -19 -8 -30 0
-20 15 8 14 22 14 30 1z m915 -11 c0 -24 -23 -21 -28 4 -2 10 3 17 12 17 10 0
16 -9 16 -21z m-210 -90 c12 -21 -2 -64 -23 -72 -26 -10 -57 5 -63 29 -8 32 1
53 28 63 28 10 45 4 58 -20z m-665 2 c0 -8 -8 -19 -17 -25 -22 -13 -44 5 -34
29 7 20 51 16 51 -4z m858 5 c7 -19 -18 -40 -38 -32 -15 6 -20 28 -8 39 12 12
41 7 46 -7z m-971 -63 c39 -35 4 -123 -50 -123 -60 0 -94 78 -52 120 24 24 77
26 102 3z m201 -44 c30 -42 -16 -94 -62 -70 -23 13 -29 59 -9 79 19 19 55 14
71 -9z m437 3 c0 -24 -19 -42 -36 -35 -15 5 -19 35 -7 46 14 14 43 7 43 -11z
m258 6 c7 -7 12 -24 12 -38 0 -53 -57 -69 -86 -25 -15 23 -15 27 0 50 18 27
54 33 74 13z m-358 -43 c0 -8 -7 -15 -15 -15 -8 0 -15 7 -15 15 0 8 7 15 15
15 8 0 15 -7 15 -15z m-180 -57 c24 -26 26 -65 4 -96 -33 -48 -124 -12 -124
50 0 61 78 91 120 46z m405 -3 c30 -30 31 -54 4 -89 -40 -50 -119 -24 -119 40
0 68 68 97 115 49z m-195 -23 c13 -10 23 -33 27 -59 5 -35 2 -45 -20 -67 -26
-26 -66 -33 -102 -20 -44 17 -54 105 -17 147 20 22 83 22 112 -1z m-481 -6
c17 -20 10 -67 -11 -79 -27 -18 -68 7 -68 41 0 15 5 33 12 40 16 16 53 15 67
-2z m111 -111 c16 -19 4 -35 -26 -35 -25 0 -28 7 -18 34 8 20 28 21 44 1z m85
-35 c11 -17 -5 -32 -21 -19 -7 6 -11 15 -8 20 7 12 21 11 29 -1z"/>
</g>
</svg>
